<svg width="300" height="300" viewBox="0 0 300 300" fill="none" xmlns="http://www.w3.org/2000/svg">
<g filter="url(#filter0_i)">
<circle cx="150" cy="150" r="150" fill="#384F6C"/>
</g>
<path d="M101 126C101 120.477 105.477 116 111 116H191C196.523 116 201 120.477 201 126V126C201 131.523 196.523 136 191 136H111C105.477 136 101 131.523 101 126V126Z" fill="#6DE5AE"/>
<path d="M188 216C201.261 216 213.979 210.732 223.355 201.355C232.732 191.979 238 179.261 238 166C238 152.739 232.732 140.021 223.355 130.645C213.979 121.268 201.261 116 188 116L188 136.018C195.952 136.018 203.578 139.176 209.201 144.799C214.824 150.422 217.982 158.048 217.982 166C217.982 173.952 214.824 181.578 209.201 187.201C203.578 192.824 195.952 195.982 188 195.982V216Z" fill="#6DE5AE"/>
<path d="M73 206C73 200.477 77.4772 196 83 196H193C198.523 196 203 200.477 203 206V206C203 211.523 198.523 216 193 216H83C77.4772 216 73 211.523 73 206V206Z" fill="#6DE5AE"/>
<path d="M143 278C137.477 278 133 273.523 133 268V155C133 149.477 137.477 145 143 145V145C148.523 145 153 149.477 153 155V268C153 273.523 148.523 278 143 278V278Z" fill="#6DE6AE"/>
<path d="M203 46C203 51.5228 198.523 56 193 56L113 56C107.477 56 103 51.5228 103 46V46C103 40.4772 107.477 36 113 36L193 36C198.523 36 203 40.4772 203 46V46Z" fill="white"/>
<path d="M113 36C99.7392 36 87.0215 41.2678 77.6447 50.6447C68.2678 60.0215 63 72.7392 63 86C63 99.2608 68.2678 111.979 77.6447 121.355C87.0215 130.732 99.7392 136 113 136L113 115.982C105.048 115.982 97.422 112.824 91.7993 107.201C86.1765 101.578 83.0176 93.9518 83.0176 86C83.0176 78.0482 86.1765 70.422 91.7993 64.7993C97.422 59.1765 105.048 56.0176 113 56.0176L113 36Z" fill="white"/>
<rect x="127" y="196" width="6" height="20" fill="#384F6C"/>
<rect x="113" y="116" width="14" height="20" fill="white"/>
<path d="M73 206C73 200.477 77.4772 196 83 196H127V216H83C77.4772 216 73 211.523 73 206V206Z" fill="white"/>
<defs>
<filter id="filter0_i" x="0" y="0" width="300" height="300" filterUnits="userSpaceOnUse" color-interpolation-filters="sRGB">
<feFlood flood-opacity="0" result="BackgroundImageFix"/>
<feBlend mode="normal" in="SourceGraphic" in2="BackgroundImageFix" result="shape"/>
<feColorMatrix in="SourceAlpha" type="matrix" values="0 0 0 0 0 0 0 0 0 0 0 0 0 0 0 0 0 0 127 0" result="hardAlpha"/>
<feMorphology radius="10" operator="erode" in="SourceAlpha" result="effect1_innerShadow"/>
<feOffset/>
<feGaussianBlur stdDeviation="7.5"/>
<feComposite in2="hardAlpha" operator="arithmetic" k2="-1" k3="1"/>
<feColorMatrix type="matrix" values="0 0 0 0 0 0 0 0 0 0 0 0 0 0 0 0 0 0 0.25 0"/>
<feBlend mode="normal" in2="shape" result="effect1_innerShadow"/>
</filter>
</defs>
</svg>
