<svg width="78" height="82" viewBox="0 0 78 82" fill="none" xmlns="http://www.w3.org/2000/svg">
<rect x="1.00587" y="1.44976" width="75.4435" height="79.0332" rx="13" transform="rotate(-0.337113 1.00587 1.44976)" fill="black" stroke="black" stroke-width="2"/>
<line x1="32.5681" y1="34.0929" x2="48.5681" y2="34.0929" stroke="white" stroke-width="5"/>
<path d="M32.5731 6.1669C28.5949 6.16623 24.7793 7.76851 21.9658 10.6213C19.1523 13.474 17.5713 17.3436 17.5706 21.3786C17.57 25.4137 19.1497 29.2838 21.9622 32.1375C24.7748 34.9912 28.5899 36.5948 32.5681 36.5955L32.569 31.5139C29.9194 31.5135 27.3786 30.4455 25.5054 28.5449C23.6323 26.6443 22.5802 24.0669 22.5806 21.3795C22.5811 18.6921 23.634 16.115 25.5078 14.2151C27.3816 12.3151 29.9228 11.248 32.5723 11.2485L32.5731 6.1669Z" fill="white"/>
<path d="M48.5681 61.9501C52.5464 61.9501 56.3617 60.3471 59.1747 57.4939C61.9878 54.6407 63.5681 50.7709 63.5681 46.7358C63.5681 42.7007 61.9878 38.8309 59.1747 35.9776C56.3617 33.1244 52.5464 31.5215 48.5681 31.5215L48.5681 36.6031C51.2176 36.6031 53.7586 37.6706 55.6321 39.5709C57.5056 41.4711 58.5581 44.0484 58.5581 46.7358C58.5581 49.4231 57.5056 52.0004 55.6321 53.9007C53.7586 55.8009 51.2176 56.8685 48.5681 56.8685V61.9501Z" fill="white"/>
<path d="M37.5681 42.1358C37.5681 40.7551 38.6874 39.6358 40.0681 39.6358V39.6358C41.4488 39.6358 42.5681 40.7551 42.5681 42.1358V74.6643C42.5681 76.0451 41.4488 77.1643 40.0681 77.1643V77.1643C38.6874 77.1643 37.5681 76.0451 37.5681 74.6643V42.1358Z" fill="white"/>
<path d="M30.0681 8.70005C30.0681 7.29962 31.2034 6.16434 32.6038 6.16434H48.5324C49.9328 6.16434 51.0681 7.29962 51.0681 8.70005V8.70005C51.0681 10.1005 49.9328 11.2358 48.5324 11.2358H32.6038C31.2034 11.2358 30.0681 10.1005 30.0681 8.70005V8.70005Z" fill="white"/>
<path d="M20.5681 59.4143C20.5681 58.0139 21.7034 56.8786 23.1038 56.8786H34.0324C35.4328 56.8786 36.5681 58.0139 36.5681 59.4143V59.4143C36.5681 60.8148 35.4328 61.9501 34.0324 61.9501H23.1038C21.7034 61.9501 20.5681 60.8148 20.5681 59.4143V59.4143Z" fill="white"/>
<path d="M38.5681 59.4143C38.5681 58.0139 39.7034 56.8786 41.1038 56.8786H48.0324C49.4328 56.8786 50.5681 58.0139 50.5681 59.4143V59.4143C50.5681 60.8148 49.4328 61.9501 48.0324 61.9501H41.1038C39.7034 61.9501 38.5681 60.8148 38.5681 59.4143V59.4143Z" fill="white"/>
<rect x="36.5681" y="31.5215" width="12" height="5.07143" fill="white"/>
<rect x="34.5681" y="56.8786" width="2" height="5.07143" fill="black"/>
</svg>
